<svg id="visual" viewBox="0 0 900 600" width="900" height="600" xmlns="http://www.w3.org/2000/svg" xmlns:xlink="http://www.w3.org/1999/xlink" version="1.1"><rect x="0" y="0" width="900" height="600" fill="#002233"></rect><path d="M0 387L21.5 406.5C43 426 86 465 128.8 468.5C171.7 472 214.3 440 257.2 419.2C300 398.3 343 388.7 385.8 387.7C428.7 386.7 471.3 394.3 514.2 401.8C557 409.3 600 416.7 642.8 429.7C685.7 442.7 728.3 461.3 771.2 455.3C814 449.3 857 418.7 878.5 403.3L900 388L900 601L878.5 601C857 601 814 601 771.2 601C728.3 601 685.7 601 642.8 601C600 601 557 601 514.2 601C471.3 601 428.7 601 385.8 601C343 601 300 601 257.2 601C214.3 601 171.7 601 128.8 601C86 601 43 601 21.5 601L0 601Z" fill="#0066FF" stroke-linecap="round" stroke-linejoin="miter"></path></svg>